/* XPM */
static char *ball2_xpm[] = {
/* width height num_colors chars_per_pixel */
"15 16 2 1",
/* colors */
"X c #FFFFFF",
". c #505050",
/* pixels */
"...............",
".....XXXXX.....",
"...XXXXXXXXX...",
"..XXXXXXXXXXX..",
".XXXXXXXXXXXXX.",
".XXXXXXXXXXXXX.",
"XXXXXXXXXXXXXXX",
"XXXXXXXXXXXXXXX",
"XXXXXXXXXXXXXXX",
"XXXXXXXXXXXXXXX",
"XXXXXXXXXXXXXXX",
".XXXXXXXXXXXXX.",
".XXXXXXXXXXXXX.",
"..XXXXXXXXXXX..",
"...XXXXXXXXX...",
".....XXXXX.....",
"...............",
};
