/* XPM */
static char * brick_xpm[] = {
"64 32 4 1",
" 	c #000000",
".	c #24FF00",
"+	c #EB0000",
"@	c #0065FF",
"                                                                ",
" ..  +++++++++@++@++++++@@+@++++++++++@+@@@+++++++@++++++++  .. ",
" .  @@@++++++@+++@++++++@+@@++++++++++@@+@+@+++++++@+++++@@+  . ",
"   @+++@+++++@+++@++++++@++@++++++++++@++@+@++++++++@++@@+++@   ",
"  @+++++@@++@++++@++++++@++@@+++++++@@@++@++@++++++++@@++++@++  ",
" +@+++++++@@++++@++++++@+++@+@+++++@++@+++@++@+++++@@+@++@@++++ ",
" @+++++++++@@+++@++++++@+++@++@+++@+++@+++@+++@++@@++++@@++++++ ",
" +++++++++@++@++@++++++@+++@+++@@@++++@+++@++++@@+++++@@+++++++ ",
" +++++++++@+++@@+++++++@+++@+++@@+++++@++++@+@@+@+++@@++@++++++ ",
" ++++++++@+++++@@+++++@++++@++@++@++++@++++@@++++@@@+++++@+++++ ",
" ++++++++@+++++@+@@+++@++++@@@++++@+++@+@@@@+++++@@+++++++@++@@ ",
" +++++++@+++++@++++@@+@+++@@@@@@@@@@@@@@@@@@@@@@@@@@@@@@@@@@@@@ ",
" +++++++@+++++@++@@@@@@@@@@@+++++++@@@@++++@++@+++++@++++++@+++ ",
" ++++++@@@@@@@@@@+++++@@+@+@++++@@@++@@++++@@@+++++++@+++@@+@++ ",
" +@@@@@@+++++@++++++++@+@@+@+@@@+++++@@+++@@@+++++++++@+@++++@+ ",
" @++++@++++++@++++++++@@+@@@@++++++++@+@+@++@++++++++++@+++++@+ ",
" +++++@+++++@++++++++@@@@++@@++++++++@+@@+++@++++++++@@+@+++++@ ",
" ++++@++++++@++++++@@@+++++@+@@++++++@@++@+++@++++++@++++@@++++ ",
" ++++@+++++@++++@@@@+@+++++@+++@@+++@@++++@++@+++++@+++++++@+++ ",
" +++@++++++@+@@@+@@++@+++++@+++++@@@+@+++++@+@++++@+++++++++@++ ",
" +++@+++++@@@+++@++++@+++++@++++++@@@@++++++@+@++@+++++++++++@+ ",
" ++@+++@@@@++++@+++++@+++++@++++@@+++@+++++++@@@@+++++++++++++@ ",
" ++@+@@++@+++@@++++++@+++++@+++@++++@+@@++++++@@++++++++++++++@ ",
" ++@@++++@++@+++++++@++++++@+@@+++++@+++@++++@+@@++++++++++++@+ ",
" @@+++++@++@++++++++@++++++@@+++++++@++++@@+@++@+@@++++++++@@++ ",
" +@+++++@+@+++++++++@+++++@@++++++++@++++++@@+++@++@++++++@++++ ",
" @+++++@@@++++++++++@++++@+@++++++++@+++++@++@++@+++@++++@+++++ ",
"  +++++@++++++++++++@++@@++@+++++++@+++++@+++@@+@++++@+@@+++++  ",
"   +++@++++++++++++@+@@++++@+++++++@++++@+++++@++@++++@@+++++   ",
" .  +@@++++++++++++@@++++++@+++++++@+++@+++++++@@++++@++@+++  . ",
" ..  @++++++++++++@@+++++++@++++++@+++@++++++++@@@++@++++@@  .. ",
"                                                                "};
