/* XPM */
static char * life_xpm[] = {
"9 10 3 1",
" 	c #505050",
".	c #000000",
"+	c #FF0000",
"   .+.   ",
" .+++++. ",
".+++++++.",
".+++++++.",
"+++++++++",
"+++++++++",
".+++++++.",
".+++++++.",
" .+++++. ",
"   .+.   "};
