/* XPM */
static char * marker_xpm[] = {
"16 16 3 1",
" 	c #FF0000",
".	c #505050",
"+	c #24FF00",
"   ...    ...   ",
"   ...    ...   ",
"   ...    ...   ",
"...          ...",
"...          ...",
"...          ...",
"      ....      ",
"      .++.      ",
"      .++.      ",
"      ....      ",
"...          ...",
"...          ...",
"...          ...",
"   ...    ...   ",
"   ...    ...   ",
"   ...    ...   "};
