/* XPM */
static char * paddle_xpm[] = {
"128 16 264 2",
"  	c None",
". 	c #000000",
"+ 	c #252523",
"@ 	c #0065FF",
"# 	c #5B5B5B",
"$ 	c #1E1E1C",
"% 	c #929291",
"& 	c #FBFBFB",
"* 	c #F5F5F5",
"= 	c #747474",
"- 	c #1D1D1B",
"; 	c #767675",
"> 	c #F4F4F4",
", 	c #FFFFFF",
"' 	c #BBBBBB",
") 	c #1F1F1D",
"! 	c #333332",
"~ 	c #D5D5D4",
"{ 	c #7F7F7F",
"] 	c #6F6F6D",
"^ 	c #F1F2F1",
"/ 	c #FEFEFE",
"( 	c #B6B6B6",
"_ 	c #373836",
": 	c #D7D7D7",
"< 	c #DFDFDF",
"[ 	c #434343",
"} 	c #A8A8A6",
"| 	c #828282",
"1 	c #1D1E1B",
"2 	c #6B6C6A",
"3 	c #D4D4D4",
"4 	c #323231",
"5 	c #BABBB9",
"6 	c #696968",
"7 	c #858584",
"8 	c #24FF00",
"9 	c #A0A0A0",
"0 	c #787878",
"a 	c #5C5C5C",
"b 	c #FBFBFA",
"c 	c #F1F1F1",
"d 	c #757574",
"e 	c #F4F4F3",
"f 	c #1F1F1E",
"g 	c #D4D4D3",
"h 	c #808080",
"i 	c #6D6D6D",
"j 	c #F2F2F1",
"k 	c #B7B7B7",
"l 	c #1E1E1D",
"m 	c #363635",
"n 	c #D7D7D6",
"o 	c #E0E0DF",
"p 	c #444443",
"q 	c #A7A7A7",
"r 	c #848483",
"s 	c #696A69",
"t 	c #D5D5D5",
"u 	c #323332",
"v 	c #BABAB9",
"w 	c #6A6A6A",
"x 	c #909090",
"y 	c #F6F6F6",
"z 	c #797978",
"A 	c #737473",
"B 	c #F3F4F3",
"C 	c #BCBCBB",
"D 	c #1F201E",
"E 	c #323230",
"F 	c #D3D3D2",
"G 	c #6C6C6C",
"H 	c #B8B8B7",
"I 	c #353534",
"J 	c #D6D6D5",
"K 	c #454545",
"L 	c #A6A6A6",
"M 	c #848484",
"N 	c #686868",
"O 	c #333433",
"P 	c #1E1F1C",
"Q 	c #B9B9B9",
"R 	c #6B6B6B",
"S 	c #838382",
"T 	c #FAFAFA",
"U 	c #5E5E5D",
"V 	c #8E8E8D",
"W 	c #FAFAF9",
"X 	c #7B7B7A",
"Y 	c #727371",
"Z 	c #F3F3F3",
"` 	c #BDBDBC",
" .	c #30312F",
"..	c #828281",
"+.	c #6B6B6A",
"@.	c #FFFFFE",
"#.	c #B8B9B8",
"$.	c #1E1F1D",
"%.	c #343432",
"&.	c #E0E0E0",
"*.	c #454644",
"=.	c #A6A6A5",
"-.	c #858585",
";.	c #666665",
">.	c #D6D6D6",
",.	c #333432",
"'.	c #B9B9B8",
").	c #6B6C6B",
"!.	c #767775",
"~.	c #90908F",
"{.	c #5E5E5E",
"].	c #1C1C1A",
"^.	c #8A8B89",
"/.	c #7C7D7C",
"(.	c #717170",
"_.	c #F3F3F2",
":.	c #BDBDBD",
"<.	c #20201E",
"[.	c #30302E",
"}.	c #D2D2D1",
"|.	c #6A6A68",
"1.	c #F0F0EF",
"2.	c #464645",
"3.	c #A5A5A4",
"4.	c #878787",
"5.	c #656564",
"6.	c #B8B8B6",
"7.	c #1C1D1B",
"8.	c #8E8F8D",
"9.	c #525251",
"0.	c #5F5F5F",
"a.	c #8A8A8A",
"b.	c #7D7D7D",
"c.	c #70706F",
"d.	c #BEBEBE",
"e.	c #2F2F2E",
"f.	c #D1D1D0",
"g.	c #E1E1E1",
"h.	c #474746",
"i.	c #888888",
"j.	c #646464",
"k.	c #B7B7B6",
"l.	c #9C9C9B",
"m.	c #515150",
"n.	c #60605F",
"o.	c #8B8B8B",
"p.	c #F6F6F5",
"q.	c #7F7F7E",
"r.	c #6F6F6F",
"s.	c #F2F2F2",
"t.	c #20201F",
"u.	c #2E2E2D",
"v.	c #BABABA",
"w.	c #313230",
"x.	c #E2E2E1",
"y.	c #494949",
"z.	c #A4A4A4",
"A.	c #626262",
"B.	c #F7F7F6",
"C.	c #8E8E8E",
"D.	c #50504F",
"E.	c #616160",
"F.	c #8C8C8C",
"G.	c #6E6E6C",
"H.	c #C0C0BF",
"I.	c #20211F",
"J.	c #2E2E2C",
"K.	c #686867",
"L.	c #D3D3D3",
"M.	c #E3E3E3",
"N.	c #4A4A49",
"O.	c #A3A3A2",
"P.	c #8C8C8B",
"Q.	c #626261",
"R.	c #D8D8D8",
"S.	c #B6B6B5",
"T.	c #F7F7F7",
"U.	c #8D8D8D",
"V.	c #4F504E",
"W.	c #616161",
"X.	c #F8F8F8",
"Y.	c #E8E8E8",
"Z.	c #80807F",
"`.	c #6D6D6C",
" +	c #C1C1C1",
".+	c #21211F",
"++	c #2D2E2C",
"@+	c #D0D0CF",
"#+	c #676765",
"$+	c #EFEFEF",
"%+	c #31312F",
"&+	c #A2A2A1",
"*+	c #60605E",
"=+	c #373736",
"-+	c #AAAAA9",
";+	c #4F504F",
">+	c #636463",
",+	c #F9FAF9",
"'+	c #818281",
")+	c #6C6C6B",
"!+	c #F1F1F0",
"~+	c #212120",
"{+	c #2D2D2B",
"]+	c #CFD0CE",
"^+	c #868686",
"/+	c #666666",
"(+	c #EFEFEE",
"_+	c #30302F",
":+	c #E4E4E4",
"<+	c #4B4B4B",
"[+	c #5F5F5E",
"}+	c #D9D9D9",
"|+	c #383837",
"1+	c #4E4E4E",
"2+	c #646463",
"3+	c #C2C2C2",
"4+	c #222220",
"5+	c #2C2C2A",
"6+	c #CFCFCF",
"7+	c #878786",
"8+	c #E4E4E3",
"9+	c #4C4C4B",
"0+	c #8F8F8E",
"a+	c #5D5D5D",
"b+	c #DADAD9",
"c+	c #383838",
"d+	c #4D4E4C",
"e+	c #8A8A89",
"f+	c #F9F9F9",
"g+	c #838483",
"h+	c #6A6A69",
"i+	c #F0F0F0",
"j+	c #C3C3C2",
"k+	c #212220",
"l+	c #2B2C2A",
"m+	c #CECECE",
"n+	c #898988",
"o+	c #656563",
"p+	c #BFBFBE",
"q+	c #2F2F2D",
"r+	c #D1D1D1",
"s+	c #4D4D4C",
"t+	c #9F9F9F",
"u+	c #909190",
"v+	c #5C5C5B",
"w+	c #4B4B4A",
"x+	c #C3C3C3",
"y+	c #232321",
"z+	c #2A2B29",
"A+	c #CDCDCC",
"B+	c #646462",
"C+	c #EEEEED",
"D+	c #BFBFBF",
"E+	c #E5E5E5",
"F+	c #9F9F9D",
"G+	c #5C5C5A",
"H+	c #292928",
"I+	c #CCCCCB",
"J+	c #636362",
"K+	c #BFC0BF",
"L+	c #CFD0CF",
"M+	c #9E9E9D",
"N+	c #939393",
"O+	c #595959",
". . . . . . . . . . . . . . . . . . . . . . . . . . . . . . . . . . . . . . . . . . . . . . . . . . . . . . . . . . . . . . . . . . . . . . . . . . . . . . . . . . . . . . . . . . . . . . . . . . . . . . . . . . . . . . . . . . . . . . . . . . . . . . . . ",
". + @ @ @ # $ % & * = - ; > , ' ) ! ~ @ @ @ @ @ @ @ { - ] ^ / ( $ _ : , < [ - } @ @ | 1 2 @ @ @ @ @ @ @ 3 4 ) 5 @ @ 6 - 7 8 8 9 9 8 8 7 - 6 @ @ 5 ) 4 3 @ @ @ @ @ @ @ 2 1 | @ @ } - [ < , : _ $ ( / ^ ] - { @ @ @ @ @ @ @ ~ ! ) ' , > ; - 0 * & % $ # @ @ @ + . ",
". @ @ @ @ @ a - % b c 0 - d e , ' f 4 g @ @ @ @ @ @ @ h - i j / k l m n , o p - q @ @ r - s @ @ @ @ @ @ @ t u ) v @ @ w - r 8 8 8 8 r - w @ @ v ) u t @ @ @ @ @ @ @ s - r @ @ q - p o , n m l k / j i - h @ @ @ @ @ @ @ g 4 f ' , e d - 0 * b % - a @ @ @ @ @ . ",
". @ @ @ @ @ @ a - x y > z - A B / C D E F @ @ @ @ @ @ @ h - G c / H ) I J , o K - L @ @ M - N @ @ @ @ @ @ @ J O P Q @ @ R - S 8 8 S - R @ @ Q P O J @ @ @ @ @ @ @ N - M @ @ L - K o , J I ) H / c G - h @ @ @ @ @ @ @ F E D C / B A - z * T x - a @ @ @ @ @ @ . ",
". @ @ @ @ @ @ @ U - V W * X - Y Z , ` D  .F @ @ @ @ @ @ @ ..- +.c @.#.$.%.t , &.*.- =.@ @ -.- ;.@ @ @ @ @ @ @ >.,.$ '.@ @ ).- !.!.- ).@ @ '.$ ,.>.@ @ @ @ @ @ @ ;.- -.@ @ =.- *.&., t %.$.#.@.c +.- ..@ @ @ @ @ @ @ F  .D ` , Z Y - X * b ~.- U @ @ @ @ @ @ @ . ",
". @ @ @ @ @ @ @ @ {.].^.T y /.- (._., :.<.[.}.@ @ @ @ @ @ @ | - |.1./ Q ) ! ~ , &.2.- 3.@ @ 4.- 5.@ @ @ @ @ @ @ >.I $ 6.@ @ G 7.7.G @ @ 6.$ I >.@ @ @ @ @ @ @ 5.- 4.@ @ 3.- 2.&., ~ ! ) Q / 1.|.- | @ @ @ @ @ @ @ }.[.<.:., _.(.- /.y T 8.- {.@ @ @ @ @ @ @ @ . ",
". 9.@ @ @ @ @ @ @ @ 0.- a.> y b.- c._., d.D e.f.@ @ @ @ @ @ @ M - N 1., v $.! g , g.h.1 3.@ @ i.- j.@ @ @ @ @ @ @ : I $ k.@ @ i i @ @ k.$ I : @ @ @ @ @ @ @ j.- i.@ @ 3.1 h.g., g ! $.v , 1.N - M @ @ @ @ @ @ @ f.e.D d., _.c.- b.y T V - 0.@ @ @ @ @ @ @ @ 9.. ",
"l.. m.@ @ @ @ @ @ @ @ n.- o.y p.q.- r.s., d.t.u.f.@ @ @ @ @ @ @ M - N 1., v.f w.3 , x.y.- z.@ @ a.- A.@ @ @ @ @ @ @ : I $ k.@ @ @ @ k.$ I : @ @ @ @ @ @ @ A.- a.@ @ z.- y.x., 3 w.f v., 1.N - M @ @ @ @ @ @ @ f.u.t.d., s.r.- q.B.T C.- n.@ @ @ @ @ @ @ @ m..   ",
"    . D.@ @ @ @ @ @ @ @ E.- F.y * b.- G.s., H.I.J.f.@ @ @ @ @ @ @ 7 - K.1., C ) E L., M.N.- O.@ @ P.- Q.@ @ @ @ @ @ @ R.m P S.@ @ S.P m R.@ @ @ @ @ @ @ Q.- P.@ @ O.- N.M., L.E ) C , 1.K.- 7 @ @ @ @ @ @ @ f.J.I.H., s.G.- { T.T U.- E.@ @ @ @ @ @ @ @ D..     ",
"      . V.@ @ @ @ @ @ @ @ W.- P.X.Y.Z.- `.^ ,  +.+++@+@ @ @ @ @ @ @ -.- #+$+/ :.<.%+L., M.N.- &+@ @ V - *+@ @ @ @ @ @ @ R.=+$ -+-+$ =+R.@ @ @ @ @ @ @ *+- V @ @ &+- N.M., L.%+<.:./ $+#+- -.@ @ @ @ @ @ @ @+++.+ +, ^ `.- Z.T.T P.- W.@ @ @ @ @ @ @ @ V..       ",
"        . ;+@ @ @ @ @ @ @ @ >+- P.,+T.'+- )+!+,  +~+{+]+@ @ @ @ @ @ @ ^+- /+(+, :.t._+}., :+<+- &+@ @ C.- [+@ @ @ @ @ @ @ }+|+].].|+}+@ @ @ @ @ @ @ [+- C.@ @ &+- <+:+, }._+t.:., (+/+- ^+@ @ @ @ @ @ @ ]+{+~+ +, !+)+- '+T.,+P.- >+@ @ @ @ @ @ @ @ ;+.         ",
"          . 1+@ @ @ @ @ @ @ @ 2+- a.,+T.| - +.!+, 3+4+5+6+@ @ @ @ @ @ @ 7+- ;.(+, d.I.[.}., 8+9+- 9 @ @ 0+- a+@ @ @ @ @ @ @ b+c+c+b+@ @ @ @ @ @ @ a+- 0+@ @ 9 - 9+8+, }.[.I.d., (+;.- 7+@ @ @ @ @ @ @ 6+5+4+3+, !++.- | T.,+a.- 2+@ @ @ @ @ @ @ @ 1+.           ",
"            . d+@ @ @ @ @ @ @ @ 2+- e+f+X.g+- h+i+, j+k+l+m+@ @ @ @ @ @ @ n+- o+$+, p+<.q+r+, :+s+- t+@ @ u+- v+@ @ @ @ @ @ @ }+}+@ @ @ @ @ @ @ v+- u+@ @ t+- s+:+, r+q+<.p+, $+o+- n+@ @ @ @ @ @ @ m+l+k+j+, i+h+- g+X.f+e+- 2+@ @ @ @ @ @ @ @ d+.             ",
"              . w+@ @ @ @ @ @ @ @ ;.- n+f+X.-.- 6 i+, x+y+z+A+@ @ @ @ @ @ @ a.- B+C+, D+.+J.@+, E+s+- F+@ @ % - G+@ @ @ @ @ @ @ @ @ @ @ @ @ @ G+- % @ @ F+- s+E+, @+J..+D+, C+B+- a.@ @ @ @ @ @ @ A+z+y+x+, i+6 - -.X.f+n+- ;.@ @ @ @ @ @ @ @ w+.               ",
"                . N.@ @ @ @ @ @ @ @ /+- n+f+X.^+1 K.1., x+y+H+I+@ @ @ @ @ @ @ o.- J+C+, K+.+{+L+, E+1+- M+@ @ N+- O+@ @ @ @ @ @ @ @ @ @ @ @ O+- N+@ @ M+- 1+E+, L+{+.+K+, C+J+- o.@ @ @ @ @ @ @ I+H+y+x+, 1.K.1 ^+X.f+n+- /+@ @ @ @ @ @ @ @ N..                 ",
"                  . . . . . . . . . . . . . . . . . . . . . . . . . . . . . . . . . . . . . . . . . . . . . . . . . . . . . . . . . . . . . . . . . . . . . . . . . . . . . . . . . . . . . . . . . . . . . . . . . . . . . . . . . . . . . .                   "};
