/* XPM */
static char * explosion_xpm[] = {
"32 32 4 1",
" 	c #505050",
".	c #FF0000",
"+	c #FFA600",
"@	c #FFF300",
"  ...+ .... ....... ...+        ",
"  ...+ .... ....... ..........  ",
" @...  .... ... ............... ",
" @@@....+++ ...++...  ..   .... ",
" @@@....+++.....+.......   +... ",
"      ..+++.....+.......   ++   ",
"      .++++................++   ",
"...   @  ...+@......+++  @+.....",
"...@...++...@ ......+++@@@@@....",
"... ......@@@@@.......+++@@@....",
"++ +......@@.@@...@   +++@@@    ",
"   +   ... .   ...    ...  @@@@ ",
" @@+++ ... .   .@     ...  @@@@ ",
" @@@@@@   +.   .@ @+++... +++@@ ",
" @@@@@@   ......@@......  +++  +",
"@ +++++   ...  @@@......  +++  +",
"@ +++@@@@@@@.  @@@......+      +",
"@ +++@@+++@@ ...    +++++@@@    ",
"     @@+++@@+... +++++++++@@@   ",
"       +++..+...++++++++++@@@@  ",
"@@@...      +...++++  ++++@@@@  ",
"@@@...      @@+   .      +++... ",
"@@@... ++++++@@   .        @.@@@",
"@@@    ++++++@@   .   +++  @.@@@",
"       +++++++@@@@+...+++    @@@",
"      @+++  ++@@@@+...+++@@     ",
"      @@@   ++@@@@+...  @@@@ @@@",
" @@@  @@@    @@@@@@     @@@@ @@@",
" @@@     @@@             @@@ @@@",
" @@@     @@@                    ",
"         @@@     @@@@           ",
"                 @@@@           "};
