/* XPM */
static char * missile_xpm[] = {
"8 24 7 1",
" 	c #505050",
".	c #C70909",
"+	c #054011",
"@	c #082C10",
"#	c #000000",
"$	c #FFF300",
"%	c #FFA600",
"  ....  ",
" ...... ",
" ...... ",
"........",
"........",
".++++++.",
"@++@@++@",
"@++@@++@",
"@++@@++@",
"@++@@++@",
"@++@@++@",
"@++@@++@",
"@++@@++@",
"@++@@++@",
"@++@@++@",
"@++@@++@",
"@++@@++@",
"@++++++@",
"########",
"########",
"########",
"##$.%.##",
"##%%..##",
"##$.%$##"};
