/* XPM */
static char * missileIcon_xpm[] = {
"3 10 5 1",
" 	c #505050",
".	c #C70909",
"+	c #054011",
"@	c #082C10",
"#	c #000000",
" . ",
"...",
"...",
"+++",
"+@+",
"+@+",
"+@+",
"+++",
"###",
"# #"};
